<mxfile host="65bd71144e" scale="1" border="2">
    <diagram name="Page-1" id="1EtK0nTzJKErtxU8rNLZ">
        <mxGraphModel dx="1217" dy="813" grid="1" gridSize="10" guides="1" tooltips="1" connect="1" arrows="1" fold="1" page="1" pageScale="1" pageWidth="1169" pageHeight="827" math="0" shadow="0">
            <root>
                <mxCell id="0"/>
                <mxCell id="1" parent="0"/>
                <mxCell id="47SYDOreM6jzBi_CaRgB-8" value="prez-ui" style="swimlane;startSize=20;" parent="1" vertex="1">
                    <mxGeometry x="285" y="100" width="590" height="520" as="geometry"/>
                </mxCell>
                <mxCell id="47SYDOreM6jzBi_CaRgB-24" value="publish" style="edgeStyle=orthogonalEdgeStyle;rounded=0;orthogonalLoop=1;jettySize=auto;html=1;entryX=0;entryY=0.5;entryDx=0;entryDy=0;" parent="47SYDOreM6jzBi_CaRgB-8" source="47SYDOreM6jzBi_CaRgB-3" target="47SYDOreM6jzBi_CaRgB-18" edge="1">
                    <mxGeometry relative="1" as="geometry"/>
                </mxCell>
                <mxCell id="47SYDOreM6jzBi_CaRgB-3" value="&lt;b&gt;&lt;font style=&quot;font-size: 14px;&quot;&gt;prez-ui&lt;/font&gt;&lt;/b&gt;&lt;br&gt;Nuxt app" style="rounded=1;whiteSpace=wrap;html=1;" parent="47SYDOreM6jzBi_CaRgB-8" vertex="1">
                    <mxGeometry x="220" y="294" width="120" height="60" as="geometry"/>
                </mxCell>
                <mxCell id="47SYDOreM6jzBi_CaRgB-28" value="publish" style="edgeStyle=orthogonalEdgeStyle;rounded=0;orthogonalLoop=1;jettySize=auto;html=1;entryX=0;entryY=0.5;entryDx=0;entryDy=0;" parent="47SYDOreM6jzBi_CaRgB-8" source="47SYDOreM6jzBi_CaRgB-4" target="47SYDOreM6jzBi_CaRgB-19" edge="1">
                    <mxGeometry relative="1" as="geometry"/>
                </mxCell>
                <mxCell id="47SYDOreM6jzBi_CaRgB-4" value="&lt;b&gt;&lt;font style=&quot;font-size: 14px;&quot;&gt;prez-template&lt;/font&gt;&lt;/b&gt;&lt;br&gt;Nuxt app NPX template" style="rounded=1;whiteSpace=wrap;html=1;" parent="47SYDOreM6jzBi_CaRgB-8" vertex="1">
                    <mxGeometry x="220" y="430" width="120" height="60" as="geometry"/>
                </mxCell>
                <mxCell id="47SYDOreM6jzBi_CaRgB-22" value="publish" style="edgeStyle=orthogonalEdgeStyle;rounded=0;orthogonalLoop=1;jettySize=auto;html=1;entryX=0.5;entryY=0;entryDx=0;entryDy=0;" parent="47SYDOreM6jzBi_CaRgB-8" source="47SYDOreM6jzBi_CaRgB-1" target="47SYDOreM6jzBi_CaRgB-16" edge="1">
                    <mxGeometry relative="1" as="geometry"/>
                </mxCell>
                <mxCell id="47SYDOreM6jzBi_CaRgB-1" value="&lt;b&gt;&lt;font style=&quot;font-size: 14px;&quot;&gt;prez-lib&lt;/font&gt;&lt;/b&gt;&lt;br&gt;JS library" style="rounded=1;whiteSpace=wrap;html=1;" parent="47SYDOreM6jzBi_CaRgB-8" vertex="1">
                    <mxGeometry x="50" y="60" width="120" height="60" as="geometry"/>
                </mxCell>
                <mxCell id="47SYDOreM6jzBi_CaRgB-23" value="publish" style="edgeStyle=orthogonalEdgeStyle;rounded=0;orthogonalLoop=1;jettySize=auto;html=1;entryX=0.5;entryY=0;entryDx=0;entryDy=0;" parent="47SYDOreM6jzBi_CaRgB-8" source="47SYDOreM6jzBi_CaRgB-2" target="47SYDOreM6jzBi_CaRgB-17" edge="1">
                    <mxGeometry relative="1" as="geometry"/>
                </mxCell>
                <mxCell id="47SYDOreM6jzBi_CaRgB-2" value="&lt;b&gt;&lt;font style=&quot;font-size: 14px;&quot;&gt;prez-components&lt;/font&gt;&lt;/b&gt;&lt;br&gt;Vue component library" style="rounded=1;whiteSpace=wrap;html=1;" parent="47SYDOreM6jzBi_CaRgB-8" vertex="1">
                    <mxGeometry x="405" y="60" width="120" height="60" as="geometry"/>
                </mxCell>
                <mxCell id="47SYDOreM6jzBi_CaRgB-25" style="edgeStyle=orthogonalEdgeStyle;rounded=0;orthogonalLoop=1;jettySize=auto;html=1;entryX=0.25;entryY=0;entryDx=0;entryDy=0;" parent="47SYDOreM6jzBi_CaRgB-8" source="47SYDOreM6jzBi_CaRgB-16" target="47SYDOreM6jzBi_CaRgB-3" edge="1">
                    <mxGeometry relative="1" as="geometry"/>
                </mxCell>
                <mxCell id="47SYDOreM6jzBi_CaRgB-16" value="prez-lib NPM JS library" style="ellipse;whiteSpace=wrap;html=1;" parent="47SYDOreM6jzBi_CaRgB-8" vertex="1">
                    <mxGeometry x="50" y="160" width="120" height="80" as="geometry"/>
                </mxCell>
                <mxCell id="47SYDOreM6jzBi_CaRgB-26" style="edgeStyle=orthogonalEdgeStyle;rounded=0;orthogonalLoop=1;jettySize=auto;html=1;entryX=0.75;entryY=0;entryDx=0;entryDy=0;" parent="47SYDOreM6jzBi_CaRgB-8" source="47SYDOreM6jzBi_CaRgB-17" target="47SYDOreM6jzBi_CaRgB-3" edge="1">
                    <mxGeometry relative="1" as="geometry"/>
                </mxCell>
                <mxCell id="47SYDOreM6jzBi_CaRgB-17" value="prez-components NPM Vue component library" style="ellipse;whiteSpace=wrap;html=1;" parent="47SYDOreM6jzBi_CaRgB-8" vertex="1">
                    <mxGeometry x="405" y="160" width="120" height="80" as="geometry"/>
                </mxCell>
                <mxCell id="47SYDOreM6jzBi_CaRgB-27" value="extend layer" style="edgeStyle=orthogonalEdgeStyle;rounded=0;orthogonalLoop=1;jettySize=auto;html=1;entryX=0.5;entryY=0;entryDx=0;entryDy=0;" parent="47SYDOreM6jzBi_CaRgB-8" source="47SYDOreM6jzBi_CaRgB-18" target="47SYDOreM6jzBi_CaRgB-4" edge="1">
                    <mxGeometry relative="1" as="geometry">
                        <Array as="points">
                            <mxPoint x="455" y="380"/>
                            <mxPoint x="280" y="380"/>
                        </Array>
                    </mxGeometry>
                </mxCell>
                <mxCell id="47SYDOreM6jzBi_CaRgB-18" value="prez-ui GitHub release" style="ellipse;whiteSpace=wrap;html=1;" parent="47SYDOreM6jzBi_CaRgB-8" vertex="1">
                    <mxGeometry x="405" y="284" width="120" height="80" as="geometry"/>
                </mxCell>
                <mxCell id="47SYDOreM6jzBi_CaRgB-19" value="prez-template NPX template" style="ellipse;whiteSpace=wrap;html=1;" parent="47SYDOreM6jzBi_CaRgB-8" vertex="1">
                    <mxGeometry x="405" y="420" width="120" height="80" as="geometry"/>
                </mxCell>
                <mxCell id="47SYDOreM6jzBi_CaRgB-13" value="Non-Vue apps" style="rounded=1;whiteSpace=wrap;html=1;" parent="1" vertex="1">
                    <mxGeometry x="80" y="270" width="120" height="60" as="geometry"/>
                </mxCell>
                <mxCell id="47SYDOreM6jzBi_CaRgB-14" value="Vue.js apps" style="rounded=1;whiteSpace=wrap;html=1;" parent="1" vertex="1">
                    <mxGeometry x="960" y="270" width="120" height="60" as="geometry"/>
                </mxCell>
                <mxCell id="47SYDOreM6jzBi_CaRgB-20" style="edgeStyle=orthogonalEdgeStyle;rounded=0;orthogonalLoop=1;jettySize=auto;html=1;entryX=0;entryY=0.5;entryDx=0;entryDy=0;" parent="1" source="47SYDOreM6jzBi_CaRgB-17" target="47SYDOreM6jzBi_CaRgB-14" edge="1">
                    <mxGeometry relative="1" as="geometry"/>
                </mxCell>
                <mxCell id="47SYDOreM6jzBi_CaRgB-21" style="edgeStyle=orthogonalEdgeStyle;rounded=0;orthogonalLoop=1;jettySize=auto;html=1;entryX=1;entryY=0.5;entryDx=0;entryDy=0;" parent="1" source="47SYDOreM6jzBi_CaRgB-16" target="47SYDOreM6jzBi_CaRgB-13" edge="1">
                    <mxGeometry relative="1" as="geometry"/>
                </mxCell>
                <mxCell id="47SYDOreM6jzBi_CaRgB-29" value="Prez UI themed instance" style="rounded=1;whiteSpace=wrap;html=1;" parent="1" vertex="1">
                    <mxGeometry x="690" y="660" width="120" height="60" as="geometry"/>
                </mxCell>
                <mxCell id="47SYDOreM6jzBi_CaRgB-30" value="use template" style="edgeStyle=orthogonalEdgeStyle;rounded=0;orthogonalLoop=1;jettySize=auto;html=1;entryX=0.5;entryY=0;entryDx=0;entryDy=0;" parent="1" source="47SYDOreM6jzBi_CaRgB-19" target="47SYDOreM6jzBi_CaRgB-29" edge="1">
                    <mxGeometry relative="1" as="geometry"/>
                </mxCell>
            </root>
        </mxGraphModel>
    </diagram>
</mxfile>